<?xml version="1.0" standalone="no"?>
<!DOCTYPE svg PUBLIC "-//W3C//DTD SVG 20010904//EN"
 "http://www.w3.org/TR/2001/REC-SVG-20010904/DTD/svg10.dtd">
<svg version="1.0" xmlns="http://www.w3.org/2000/svg"
 width="32.000000pt" height="32.000000pt" viewBox="0 0 32.000000 32.000000"
 preserveAspectRatio="xMidYMid meet">

<g transform="translate(0.000000,32.000000) scale(0.100000,-0.100000)"
fill="#000000" stroke="none">
<path d="M150 280 c0 -22 5 -40 10 -40 6 0 10 18 10 40 0 22 -4 40 -10 40 -5
0 -10 -18 -10 -40z"/>
<path d="M70 296 c0 -3 10 -21 21 -41 14 -23 25 -33 31 -27 13 13 -18 72 -37
72 -8 0 -15 -2 -15 -4z"/>
<path d="M20 232 c0 -4 14 -16 30 -25 40 -24 61 -11 23 14 -29 20 -53 25 -53
11z"/>
</g>
</svg>
